# xmcd
#
# Track frame offsets:
#	150
#	22456
#	45994
#	60806
#	86537
#	154890
#	171504
#	192650
#	209778
#	223979
#	275921
#	298846
#	321497
#
# Disc length: 4757
#
# Revision: 2
# Processed by: cddbd v1.5.1PL0 Copyright (c) Steve Scherf et al.
# Submitted via: dBpowerAMP V4.0
# Normalized: r0:TSWAP
#
DISCID=dd12930d
DTITLE=Various Artist - Everything
DYEAR=1900
DGENRE=
TTITLE0=4 Non Blondes - What´s up
TTITLE1=Aerosmith - Crazy
TTITLE2=Aerosmith - Girls of summer
TTITLE3=Blind Faith - Can´t find my way home
TTITLE4=Blind Faith - Do what you like
TTITLE5=Blind Melon - No rain
TTITLE6=Del Amitri - Driving with the brakes on
TTITLE7=Dido - Thank you
TTITLE8=Faith no more - Easy
TTITLE9=Grateful Dead - Morning dew
TTITLE10=Guess Who - American woman
TTITLE11=Police - Shadows in the rain
TTITLE12=Jimmi Hendrix and B.B. King - Like a rolling stone
EXTD=
EXTT0=
EXTT1=
EXTT2=
EXTT3=
EXTT4=
EXTT5=
EXTT6=
EXTT7=
EXTT8=
EXTT9=
EXTT10=
EXTT11=
EXTT12=
PLAYORDER=
